<?xml version="1.0" encoding="utf-8" standalone="no"?><!DOCTYPE svg PUBLIC "-//W3C//DTD SVG 20010904//EN" "http://www.w3.org/TR/2001/REC-SVG-20010904/DTD/svg10.dtd"><svg xmlns="http://www.w3.org/2000/svg" width="654" height="583" xmlns:xlink="http://www.w3.org/1999/xlink"><source><![CDATA[玩家->游戏: 购买商品
游戏->平台: 调用平台API
平台-->玩家: 显示支付窗口
玩家 -> 平台: 完成支付
平台 -> 第三方支付: 支付请求
第三方支付 -> 第三方支付: 处理支付
第三方支付　--> 游戏: 异步发货通知等
游戏 -> 游戏: 接收&验证通知
游戏 -> 玩家: 发货
游戏 -> 平台: 支付结果通知平台
Note right of 第三方支付: 第三方支付公司有：\nPayPal,GMO]]></source><desc></desc><defs><marker viewBox="0 0 5 5" markerWidth="5" markerHeight="5" orient="auto" refX="5" refY="2.5" id="markerArrowBlock"><path d="M 0 0 L 5 2.5 L 0 5 z"></path></marker><marker viewBox="0 0 9.6 16" markerWidth="4" markerHeight="16" orient="auto" refX="9.6" refY="8" id="markerArrowOpen"><path d="M 9.6,8 1.92,16 0,13.7 5.76,8 0,2.286 1.92,0 9.6,8 z"></path></marker></defs><g class="title"></g><g class="actor"><rect x="10" y="20" width="52" height="38" stroke="#000000" fill="#ffffff" style="stroke-width: 2;"></rect><text x="20" y="44.5" style="font-size: 16px; font-family: &quot;Andale Mono&quot;, monospace;"><tspan x="20">玩家</tspan></text></g><g class="actor"><rect x="10" y="525.1875" width="52" height="38" stroke="#000000" fill="#ffffff" style="stroke-width: 2;"></rect><text x="20" y="549.6875" style="font-size: 16px; font-family: &quot;Andale Mono&quot;, monospace;"><tspan x="20">玩家</tspan></text></g><line x1="36" x2="36" y1="58" y2="525.1875" stroke="#000000" fill="none" style="stroke-width: 2;"></line><g class="actor"><rect x="94" y="20" width="52" height="38" stroke="#000000" fill="#ffffff" style="stroke-width: 2;"></rect><text x="104" y="44.5" style="font-size: 16px; font-family: &quot;Andale Mono&quot;, monospace;"><tspan x="104">游戏</tspan></text></g><g class="actor"><rect x="94" y="525.1875" width="52" height="38" stroke="#000000" fill="#ffffff" style="stroke-width: 2;"></rect><text x="104" y="549.6875" style="font-size: 16px; font-family: &quot;Andale Mono&quot;, monospace;"><tspan x="104">游戏</tspan></text></g><line x1="120" x2="120" y1="58" y2="525.1875" stroke="#000000" fill="none" style="stroke-width: 2;"></line><g class="actor"><rect x="242" y="20" width="52" height="38" stroke="#000000" fill="#ffffff" style="stroke-width: 2;"></rect><text x="252" y="44.5" style="font-size: 16px; font-family: &quot;Andale Mono&quot;, monospace;"><tspan x="252">平台</tspan></text></g><g class="actor"><rect x="242" y="525.1875" width="52" height="38" stroke="#000000" fill="#ffffff" style="stroke-width: 2;"></rect><text x="252" y="549.6875" style="font-size: 16px; font-family: &quot;Andale Mono&quot;, monospace;"><tspan x="252">平台</tspan></text></g><line x1="268" x2="268" y1="58" y2="525.1875" stroke="#000000" fill="none" style="stroke-width: 2;"></line><g class="actor"><rect x="314" y="20" width="100" height="38" stroke="#000000" fill="#ffffff" style="stroke-width: 2;"></rect><text x="324" y="44.5" style="font-size: 16px; font-family: &quot;Andale Mono&quot;, monospace;"><tspan x="324">第三方支付</tspan></text></g><g class="actor"><rect x="314" y="525.1875" width="100" height="38" stroke="#000000" fill="#ffffff" style="stroke-width: 2;"></rect><text x="324" y="549.6875" style="font-size: 16px; font-family: &quot;Andale Mono&quot;, monospace;"><tspan x="324">第三方支付</tspan></text></g><line x1="364" x2="364" y1="58" y2="525.1875" stroke="#000000" fill="none" style="stroke-width: 2;"></line><g class="signal"><text x="46" y="88.5" style="font-size: 16px; font-family: &quot;Andale Mono&quot;, monospace;"><tspan x="46">购买商品</tspan></text><line x1="36" x2="120" y1="96" y2="96" stroke="#000000" fill="none" style="stroke-width: 2; marker-end: url(&quot;#markerArrowBlock&quot;);"></line></g><g class="signal"><text x="147.6015625" y="126.5" style="font-size: 16px; font-family: &quot;Andale Mono&quot;, monospace;"><tspan x="147.6015625">调用平台API</tspan></text><line x1="120" x2="268" y1="134" y2="134" stroke="#000000" fill="none" style="stroke-width: 2; marker-end: url(&quot;#markerArrowBlock&quot;);"></line></g><g class="signal"><text x="104" y="164.5" style="font-size: 16px; font-family: &quot;Andale Mono&quot;, monospace;"><tspan x="104">显示支付窗口</tspan></text><line x1="268" x2="36" y1="172" y2="172" stroke="#000000" fill="none" style="stroke-width: 2; stroke-dasharray: 6, 2; marker-end: url(&quot;#markerArrowBlock&quot;);"></line></g><g class="signal"><text x="120" y="202.5" style="font-size: 16px; font-family: &quot;Andale Mono&quot;, monospace;"><tspan x="120">完成支付</tspan></text><line x1="36" x2="268" y1="210" y2="210" stroke="#000000" fill="none" style="stroke-width: 2; marker-end: url(&quot;#markerArrowBlock&quot;);"></line></g><g class="signal"><text x="284" y="240.5" style="font-size: 16px; font-family: &quot;Andale Mono&quot;, monospace;"><tspan x="284">支付请求</tspan></text><line x1="268" x2="364" y1="248" y2="248" stroke="#000000" fill="none" style="stroke-width: 2; marker-end: url(&quot;#markerArrowBlock&quot;);"></line></g><g class="signal"><text x="389" y="282" style="font-size: 16px; font-family: &quot;Andale Mono&quot;, monospace;"><tspan x="389">处理支付</tspan></text><line x1="364" x2="384" y1="268" y2="268" stroke="#000000" fill="none" style="stroke-width: 2;"></line><line x1="384" x2="384" y1="268" y2="291" stroke="#000000" fill="none" style="stroke-width: 2;"></line><line x1="384" x2="364" y1="291" y2="291" stroke="#000000" fill="none" style="stroke-width: 2; marker-end: url(&quot;#markerArrowBlock&quot;);"></line></g><g class="signal"><text x="186" y="316.5" style="font-size: 16px; font-family: &quot;Andale Mono&quot;, monospace;"><tspan x="186">异步发货通知等</tspan></text><line x1="364" x2="120" y1="324" y2="324" stroke="#000000" fill="none" style="stroke-width: 2; stroke-dasharray: 6, 2; marker-end: url(&quot;#markerArrowBlock&quot;);"></line></g><g class="signal"><text x="145" y="358" style="font-size: 16px; font-family: &quot;Andale Mono&quot;, monospace;"><tspan x="145">接收&amp;验证通知</tspan></text><line x1="120" x2="140" y1="344" y2="344" stroke="#000000" fill="none" style="stroke-width: 2;"></line><line x1="140" x2="140" y1="344" y2="367" stroke="#000000" fill="none" style="stroke-width: 2;"></line><line x1="140" x2="120" y1="367" y2="367" stroke="#000000" fill="none" style="stroke-width: 2; marker-end: url(&quot;#markerArrowBlock&quot;);"></line></g><g class="signal"><text x="62" y="392.5" style="font-size: 16px; font-family: &quot;Andale Mono&quot;, monospace;"><tspan x="62">发货</tspan></text><line x1="120" x2="36" y1="400" y2="400" stroke="#000000" fill="none" style="stroke-width: 2; marker-end: url(&quot;#markerArrowBlock&quot;);"></line></g><g class="signal"><text x="130" y="430.5" style="font-size: 16px; font-family: &quot;Andale Mono&quot;, monospace;"><tspan x="130">支付结果通知平台</tspan></text><line x1="120" x2="268" y1="438" y2="438" stroke="#000000" fill="none" style="stroke-width: 2; marker-end: url(&quot;#markerArrowBlock&quot;);"></line></g><g class="note"><rect x="384" y="458" width="170" height="47.1875" stroke="#000000" fill="#ffffff" style="stroke-width: 2;"></rect><text x="389" y="477.5" style="font-size: 16px; font-family: &quot;Andale Mono&quot;, monospace;"><tspan x="389">第三方支付公司有：</tspan><tspan dy="1.2em" x="389">PayPal,GMO</tspan></text></g></svg>
